<svg width="44" height="40" viewBox="0 0 44 40" fill="none" xmlns="http://www.w3.org/2000/svg">
<circle cx="20" cy="20" r="20" fill="#6D73DF"/>
<g clip-path="url(#clip0_673_178)">
<path d="M30.9167 13.3958L19.0312 25.2917L14.6146 20.875L16.0833 19.4063L19.0312 22.3542L29.4479 11.9375L30.9167 13.3958ZM20.5 28.8333C15.9062 28.8333 12.1667 25.0938 12.1667 20.5C12.1667 15.9063 15.9062 12.1667 20.5 12.1667C22.1354 12.1667 23.6667 12.6458 24.9583 13.4688L26.4687 11.9583C24.7708 10.7813 22.7187 10.0833 20.5 10.0833C14.75 10.0833 10.0833 14.75 10.0833 20.5C10.0833 26.25 14.75 30.9167 20.5 30.9167C22.3021 30.9167 24 30.4583 25.4792 29.6458L23.9167 28.0833C22.875 28.5625 21.7187 28.8333 20.5 28.8333ZM27.7917 23.625H24.6667V25.7083H27.7917V28.8333H29.875V25.7083H33V23.625H29.875V20.5H27.7917V23.625Z" fill="white"/>
</g>
<defs>
<clipPath id="clip0_673_178">
<rect width="25" height="25" fill="white" transform="translate(8 8)"/>
</clipPath>
</defs>
</svg>
