<svg width="22" height="28" viewBox="0 0 22 28" fill="none" xmlns="http://www.w3.org/2000/svg">
<path fill-rule="evenodd" clip-rule="evenodd" d="M6.25003 14C6.25003 14.2486 6.3488 14.4871 6.52462 14.6629C6.70044 14.8387 6.93889 14.9375 7.18753 14.9375L18.0494 14.9375L14.0238 18.9612C13.9366 19.0484 13.8675 19.1519 13.8203 19.2658C13.7731 19.3797 13.7488 19.5017 13.7488 19.625C13.7488 19.7483 13.7731 19.8703 13.8203 19.9842C13.8675 20.0981 13.9366 20.2016 14.0238 20.2888C14.1109 20.3759 14.2144 20.4451 14.3283 20.4922C14.4422 20.5394 14.5643 20.5637 14.6875 20.5637C14.8108 20.5637 14.9329 20.5394 15.0468 20.4922C15.1606 20.4451 15.2641 20.3759 15.3513 20.2888L20.9763 14.6637C21.0636 14.5767 21.1329 14.4732 21.1801 14.3593C21.2274 14.2454 21.2517 14.1233 21.2517 14C21.2517 13.8767 21.2274 13.7546 21.1801 13.6407C21.1329 13.5268 21.0636 13.4233 20.9763 13.3362L15.3513 7.71125C15.1752 7.53521 14.9365 7.43632 14.6875 7.43632C14.4386 7.43632 14.1998 7.53521 14.0238 7.71125C13.8477 7.88729 13.7488 8.12605 13.7488 8.375C13.7488 8.62395 13.8477 8.86271 14.0238 9.03875L18.0494 13.0625L7.18753 13.0625C6.93889 13.0625 6.70044 13.1613 6.52462 13.3371C6.3488 13.5129 6.25003 13.7514 6.25003 14ZM1.56253 0.875C1.81117 0.875 2.04963 0.973772 2.22545 1.14959C2.40126 1.3254 2.50003 1.56386 2.50003 1.8125L2.50003 26.1875C2.50003 26.4361 2.40126 26.6746 2.22545 26.8504C2.04963 27.0262 1.81117 27.125 1.56253 27.125C1.31389 27.125 1.07543 27.0262 0.899619 26.8504C0.723804 26.6746 0.625034 26.4361 0.625034 26.1875L0.625034 1.8125C0.625034 1.56386 0.723804 1.3254 0.899619 1.14959C1.07543 0.973772 1.31389 0.875 1.56253 0.875Z" fill="#343E42"/>
</svg>
