<svg width="15" height="11" viewBox="0 0 15 11" fill="none" xmlns="http://www.w3.org/2000/svg">
<path d="M-nan -nanL10.0027 5.67689C10.0027 6.27633 9.76458 6.85122 9.34071 7.27509C8.91684 7.69896 8.34194 7.93709 7.7425 7.93709C7.14306 7.93709 6.56817 7.69896 6.1443 7.27509C5.72043 6.85122 5.4823 6.27633 5.4823 5.67689C5.4823 5.07745 5.72043 4.50256 6.1443 4.07868C6.56817 3.65481 7.14306 3.41669 7.7425 3.41669C8.34194 3.41669 8.91684 3.65481 9.34071 4.07868C9.76458 4.50256 10.0027 5.07745 10.0027 5.67689L-nan -nanZ" fill="#9796A1" fill-opacity="0.6"/>
<path fill-rule="evenodd" clip-rule="evenodd" d="M2.13638 7.85759C0.977996 6.61339 0.977996 4.74031 2.13638 3.49611C3.38032 2.16001 5.29677 0.704407 7.74253 0.704407C10.1883 0.704407 12.1047 2.16001 13.3487 3.49611C14.5071 4.74031 14.5071 6.61339 13.3487 7.85759C12.1047 9.19369 10.1883 10.6493 7.74253 10.6493C5.29677 10.6493 3.38032 9.19369 2.13638 7.85759ZM-nan -nanL7.74253 8.84113C8.58175 8.84113 9.3866 8.50775 9.98002 7.91434C10.5734 7.32092 10.9068 6.51607 10.9068 5.67685C10.9068 4.83763 10.5734 4.03278 9.98002 3.43937C9.3866 2.84595 8.58175 2.51257 7.74253 2.51257C6.90331 2.51257 6.09847 2.84595 5.50505 3.43937C4.91163 4.03278 4.57825 4.83763 4.57825 5.67685C4.57825 6.51607 4.91163 7.32092 5.50505 7.91434C6.09847 8.50775 6.90331 8.84113 7.74253 8.84113L-nan -nanZ" fill="#9796A1" fill-opacity="0.6"/>
<path fill-rule="evenodd" clip-rule="evenodd" d="M2.13638 7.85759C0.977996 6.61339 0.977996 4.74031 2.13638 3.49611C3.38032 2.16001 5.29677 0.704407 7.74253 0.704407C10.1883 0.704407 12.1047 2.16001 13.3487 3.49611C14.5071 4.74031 14.5071 6.61339 13.3487 7.85759C12.1047 9.19369 10.1883 10.6493 7.74253 10.6493C5.29677 10.6493 3.38032 9.19369 2.13638 7.85759ZM-nan -nanL7.74253 8.84113C8.58175 8.84113 9.3866 8.50775 9.98002 7.91434C10.5734 7.32092 10.9068 6.51607 10.9068 5.67685C10.9068 4.83763 10.5734 4.03278 9.98002 3.43937C9.3866 2.84595 8.58175 2.51257 7.74253 2.51257C6.90331 2.51257 6.09847 2.84595 5.50505 3.43937C4.91163 4.03278 4.57825 4.83763 4.57825 5.67685C4.57825 6.51607 4.91163 7.32092 5.50505 7.91434C6.09847 8.50775 6.90331 8.84113 7.74253 8.84113L-nan -nanZ" fill="#9796A1" fill-opacity="0.6"/>
</svg>
